<svg id="Capa_1" data-name="Capa 1" xmlns="http://www.w3.org/2000/svg" xmlns:xlink="http://www.w3.org/1999/xlink" viewBox="0 0 885.69 796.68"><defs><style>.cls-1{fill:none;}.cls-2{clip-path:url(#clip-path);}.cls-3{fill:#fff;}.cls-4{clip-path:url(#clip-path-2);}.cls-5{fill:url(#Degradado_sin_nombre_3);}.cls-6{clip-path:url(#clip-path-3);}.cls-7{fill:url(#Degradado_sin_nombre_3-2);}.cls-8{clip-path:url(#clip-path-4);}.cls-9{clip-path:url(#clip-path-5);}.cls-10{clip-path:url(#clip-path-6);}.cls-11{clip-path:url(#clip-path-7);}.cls-12{clip-path:url(#clip-path-8);}.cls-13{clip-path:url(#clip-path-9);}.cls-14{clip-path:url(#clip-path-10);}.cls-15{clip-path:url(#clip-path-11);}.cls-16{clip-path:url(#clip-path-12);}</style><clipPath id="clip-path"><rect class="cls-1" x="576.69" y="692.76" width="11.26" height="11.26"/></clipPath><clipPath id="clip-path-2"><rect class="cls-1" x="550.69" y="420.76" width="11.26" height="11.26"/></clipPath><linearGradient id="Degradado_sin_nombre_3" x1="-463.27" y1="2018.65" x2="-463.66" y2="2018.08" gradientTransform="matrix(916.34, -669.14, -622.18, -852.03, 1680927.61, 1410046)" gradientUnits="userSpaceOnUse"><stop offset="0" stop-color="#0f335b"/><stop offset="1" stop-color="#044e97"/></linearGradient><clipPath id="clip-path-3"><path class="cls-1" d="M681.64,0c-13.7.68-26.71,9.56-35.41,22.44C641.69,29.2,638.2,37,633,43c-10.4,12.13-29.75,17.45-33.18,36.88-2.82,16,8.77,23.2,19.74,26.77,29.59,9.64,71.25,4.15,91.66-26.38,10.86-16.24,14.26-40.66,5.3-58.53C709.7,8.06,696.41,0,683.22,0c-.53,0-1.06,0-1.59,0"/></clipPath><linearGradient id="Degradado_sin_nombre_3-2" x1="-463.22" y1="2026.49" x2="-463.61" y2="2025.92" gradientTransform="matrix(151.92, -110.28, -112.12, -154.45, 298236.36, 261878.32)" xlink:href="#Degradado_sin_nombre_3"/><clipPath id="clip-path-4"><rect class="cls-1" x="490.99" y="602.21" width="30.39" height="28.08"/></clipPath><clipPath id="clip-path-5"><rect class="cls-1" x="477.99" y="492.82" width="5.26" height="5.26"/></clipPath><clipPath id="clip-path-6"><rect class="cls-1" x="852.99" y="378.82" width="5.26" height="5.26"/></clipPath><clipPath id="clip-path-7"><rect class="cls-1" x="284.99" y="737.82" width="5.26" height="5.26"/></clipPath><clipPath id="clip-path-8"><rect class="cls-1" x="678.36" y="662.51" width="5.26" height="5.26"/></clipPath><clipPath id="clip-path-9"><rect class="cls-1" x="826.8" y="732.19" width="11.26" height="11.26"/></clipPath><clipPath id="clip-path-10"><rect class="cls-1" x="101.46" y="752.55" width="5.95" height="11.26"/></clipPath><clipPath id="clip-path-11"><rect class="cls-1" x="647.99" y="72.82" width="5.26" height="5.26"/></clipPath><clipPath id="clip-path-12"><rect class="cls-1" x="680.99" y="38.82" width="11.26" height="11.26"/></clipPath></defs><g id="Grupo_3152" data-name="Grupo 3152"><g class="cls-2"><g id="Grupo_3131-6" data-name="Grupo 3131-6"><path id="Trazado_4815-6" data-name="Trazado 4815-6" class="cls-3" d="M584,700.06c-.72.72-1.67,4-1.67,4s-1-3.15-1.75-3.87-3.88-1.75-3.88-1.75,3.15-1,3.87-1.76,1.76-3.87,1.76-3.87,1,3.2,1.7,3.92,3.93,1.71,3.93,1.71-3.23,1-4,1.67"/></g></g></g><g id="Grupo_3151" data-name="Grupo 3151"><g class="cls-4"><g id="Grupo_3131-7" data-name="Grupo 3131-7"><path id="Trazado_4815-7" data-name="Trazado 4815-7" class="cls-3" d="M558,428.06c-.72.72-1.67,3.95-1.67,3.95s-1-3.15-1.75-3.87-3.88-1.75-3.88-1.75,3.15-1,3.87-1.76,1.76-3.87,1.76-3.87,1,3.2,1.7,3.92,3.93,1.71,3.93,1.71-3.23.95-4,1.67"/></g></g></g><g id="Grupo_3316" data-name="Grupo 3316"><path class="cls-5" d="M862,243.52c-35.37,10.24-43.19,56-65.1,85.55-30.84,41.68-89.55,49.5-141.4,48.69s-107.42-5.88-151.91,20.76c-46.8,28-68.37,83.46-85.75,135.16s-36.39,107.41-80.93,138.9c-37.56,26.57-86.28,30.58-132.29,30.47C147.88,702.93,14,694.92.9,775.83A57.58,57.58,0,0,0,1,796.68h884.7V243.27a48.36,48.36,0,0,0-11.59-1.45A43.89,43.89,0,0,0,862,243.52Z"/><g id="Grupo_3146" data-name="Grupo 3146"><g class="cls-6"><g id="Grupo_3145" data-name="Grupo 3145"><path id="Trazado_4832" data-name="Trazado 4832" class="cls-7" d="M551.55,40.13,681.18-74.22,771,76.15,641.38,190.51Z"/></g></g></g></g><g id="Grupo_3318" data-name="Grupo 3318"><g class="cls-8"><g id="Grupo_3278" data-name="Grupo 3278"><path id="Trazado_5010" data-name="Trazado 5010" class="cls-3" d="M517.11,608.94a.85.85,0,1,1,.94,1.41.82.82,0,0,1-.84,0,.85.85,0,0,1-.38-1.14.79.79,0,0,1,.28-.32"/><path id="Trazado_5011" data-name="Trazado 5011" class="cls-3" d="M514.53,612.11a1.2,1.2,0,0,1-1.2,1.22,1.21,1.21,0,1,1,1.07-1.76,1.26,1.26,0,0,1,.13.54"/><path id="Trazado_5012" data-name="Trazado 5012" class="cls-3" d="M512.14,618a2.05,2.05,0,1,1,.56-2.85l0,0a2.06,2.06,0,0,1-.59,2.8"/><path id="Trazado_5013" data-name="Trazado 5013" class="cls-3" d="M513.16,603.06c.47-.23.9.2,1,.64a.73.73,0,0,1-.83.62h0a.66.66,0,0,1-.51-.79.64.64,0,0,1,.39-.47"/><path id="Trazado_5014" data-name="Trazado 5014" class="cls-3" d="M510.58,606.55a1,1,0,0,1,1.38-.5,1,1,0,0,1,0,1.91l-.15,0a1.06,1.06,0,0,1-1.24-.87,1,1,0,0,1,.06-.59"/><path id="Trazado_5015" data-name="Trazado 5015" class="cls-3" d="M510.31,611a2.05,2.05,0,1,1-2.84-.6,2.28,2.28,0,0,1,.47-.23,2.07,2.07,0,0,1,2.37.83"/><path id="Trazado_5016" data-name="Trazado 5016" class="cls-3" d="M505.81,602.3a.84.84,0,0,1,1.12.44.79.79,0,0,1,0,.67.85.85,0,0,1-1.13.44,1,1,0,0,1-.24-.16.88.88,0,0,1,0-1.23.91.91,0,0,1,.24-.16"/><path id="Trazado_5017" data-name="Trazado 5017" class="cls-3" d="M505,608a1.26,1.26,0,0,1,1.23-1.2,1.34,1.34,0,0,1,1.05.68,1.2,1.2,0,0,1-.53,1.63l0,0a1.46,1.46,0,0,1-.9.08A1.33,1.33,0,0,1,505,608"/><path id="Trazado_5018" data-name="Trazado 5018" class="cls-3" d="M502.89,610.24a2.05,2.05,0,1,1-1,2.77,2.07,2.07,0,0,1,.95-2.77h0"/><path id="Trazado_5019" data-name="Trazado 5019" class="cls-3" d="M502.7,617.82a2,2,0,1,1,.22-2.89,2.08,2.08,0,0,1,.24.34,2.05,2.05,0,0,1-.46,2.55"/><path id="Trazado_5020" data-name="Trazado 5020" class="cls-3" d="M500.31,606.1a1,1,0,0,1,1,1.8,1,1,0,1,1-1-1.8"/><path id="Trazado_5021" data-name="Trazado 5021" class="cls-3" d="M498.69,603.06a.67.67,0,0,1,.41,1.28.67.67,0,0,1-.41-1.28"/><path id="Trazado_5022" data-name="Trazado 5022" class="cls-3" d="M492.32,616.38a.67.67,0,0,1-.75.57.64.64,0,0,1-.44-.26.68.68,0,0,1,.14-1l.13-.07a.66.66,0,0,1,.87.35.64.64,0,0,1,.05.36"/><path id="Trazado_5023" data-name="Trazado 5023" class="cls-3" d="M494.36,608.94a.85.85,0,1,1-.14,1.42.86.86,0,0,1-.13-1.2.82.82,0,0,1,.27-.22"/><path id="Trazado_5024" data-name="Trazado 5024" class="cls-3" d="M495.63,623a.85.85,0,1,1-1.27-.86.86.86,0,0,1,1.17.32.91.91,0,0,1,.1.54"/><path id="Trazado_5025" data-name="Trazado 5025" class="cls-3" d="M496.45,616.61a1,1,0,0,1-1.3.65,1.17,1.17,0,0,1-.36-.21,1,1,0,1,1,1.66-.44"/><path id="Trazado_5026" data-name="Trazado 5026" class="cls-3" d="M497.83,612a1.28,1.28,0,0,1,1.24-1.05,1.36,1.36,0,0,1,1.2,1.2,1.28,1.28,0,0,1-1.2,1.24,1.2,1.2,0,0,1-1.25-1.14,1,1,0,0,1,0-.25"/><path id="Trazado_5027" data-name="Trazado 5027" class="cls-3" d="M498.89,619.19a1.22,1.22,0,1,1-.62.28,1.26,1.26,0,0,1,.62-.28"/><path id="Trazado_5028" data-name="Trazado 5028" class="cls-3" d="M499.31,629.42a.72.72,0,0,1-1-.29.9.9,0,0,1-.09-.33c.12-.35.4-.7.81-.61a.67.67,0,0,1,.26,1.23"/><path id="Trazado_5029" data-name="Trazado 5029" class="cls-3" d="M501.88,625.56a1,1,0,0,1-1,1h-.12a1,1,0,0,1-.95-1.07,1,1,0,0,1,.65-.89,1,1,0,0,1,1.35.53,1,1,0,0,1,.09.43"/><path id="Trazado_5030" data-name="Trazado 5030" class="cls-3" d="M503.41,622.45a2.07,2.07,0,1,1,.43,0,1.56,1.56,0,0,1-.43,0"/><path id="Trazado_5031" data-name="Trazado 5031" class="cls-3" d="M506.89,629.87a1,1,0,0,1-.72.42.85.85,0,0,1-.08-1.7.83.83,0,0,1,.46.11,1,1,0,0,1,.45.73c0,.15-.08.29-.11.44"/><path id="Trazado_5032" data-name="Trazado 5032" class="cls-3" d="M505.46,625.52a1.2,1.2,0,1,1,1.08.12,1.21,1.21,0,0,1-1.08-.12"/><path id="Trazado_5033" data-name="Trazado 5033" class="cls-3" d="M508.27,622.45a2,2,0,1,1,.37,0,2.31,2.31,0,0,1-.37,0"/><path id="Trazado_5034" data-name="Trazado 5034" class="cls-3" d="M512.59,625.55a1,1,0,1,1-.12-.52,1,1,0,0,1,.12.52"/><path id="Trazado_5035" data-name="Trazado 5035" class="cls-3" d="M514.14,628.91a.68.68,0,0,1-.78.56.69.69,0,0,1-.45-.29.73.73,0,0,1,.27-1,1.25,1.25,0,0,1,.25-.09c.39.08.79.37.71.81"/><path id="Trazado_5036" data-name="Trazado 5036" class="cls-3" d="M514.55,620.39a1.21,1.21,0,1,1-2.42,0,1.21,1.21,0,0,1,2.35-.37,1.48,1.48,0,0,1,.07.42"/><path id="Trazado_5037" data-name="Trazado 5037" class="cls-3" d="M515.84,616.4a1.16,1.16,0,0,1,1.09-1.23,1.1,1.1,0,0,1,1,1.07,1,1,0,0,1-1.5.91,1.36,1.36,0,0,1-.58-.75"/><path id="Trazado_5038" data-name="Trazado 5038" class="cls-3" d="M518.25,623.39a.85.85,0,0,1-1.2.07.85.85,0,0,1,.65-1.48,1,1,0,0,1,.71.44c0,.33.11.72-.16,1"/><path id="Trazado_5039" data-name="Trazado 5039" class="cls-3" d="M520.67,616.88c-.65.06-.86-.93-.32-1.22a.65.65,0,0,1,.91.2.6.6,0,0,1,.06.11.65.65,0,0,1-.65.91"/></g></g></g><path id="Trazado_5054" data-name="Trazado 5054" class="cls-3" d="M817.93,516c.3-2-1.23-3.07-3.31-3.79l.68-2.71-1.65-.41-.66,2.64-1.32-.31.66-2.66-1.64-.41-.68,2.71-1-.25h0l-2.28-.57-.43,1.76s1.22.29,1.2.3a.88.88,0,0,1,.76,1l-.77,3.09.18,0-.18,0-1.08,4.32a.6.6,0,0,1-.75.4h0s-1.2-.3-1.2-.3l-.82,1.88,2.15.54,1.17.3-.68,2.74,1.65.41.67-2.71,1.32.34-.68,2.7,1.65.41.68-2.73c2.81.53,4.93.31,5.82-2.23a2.9,2.9,0,0,0-1.27-3.89l-.25-.11a2.63,2.63,0,0,0,2.1-2.42m-3.76,5.28c-.51,2.05-4,.94-5.08.67l.9-3.63c1.12.27,4.7.83,4.17,3m.51-5.31c-.46,1.86-3.33.92-4.26.69l.82-3.3c.93.23,3.93.67,3.44,2.61"/><g id="Grupo_3168" data-name="Grupo 3168"><g class="cls-9"><g id="Grupo_3131-9" data-name="Grupo 3131-9"><path id="Trazado_4815-9" data-name="Trazado 4815-9" class="cls-3" d="M481.4,496.23a7.73,7.73,0,0,0-.78,1.85,2.82,2.82,0,0,0-2.63-2.63,7.4,7.4,0,0,0,1.81-.82,7.57,7.57,0,0,0,.82-1.81,7.48,7.48,0,0,0,.8,1.83,7.27,7.27,0,0,0,1.83.8,7.31,7.31,0,0,0-1.84.79"/></g></g></g><g id="Grupo_3150" data-name="Grupo 3150"><g class="cls-10"><g id="Grupo_3131-10" data-name="Grupo 3131-10"><path id="Trazado_4815-10" data-name="Trazado 4815-10" class="cls-3" d="M856.4,382.23a7.73,7.73,0,0,0-.78,1.85,2.82,2.82,0,0,0-2.63-2.63,7.4,7.4,0,0,0,1.81-.82,7.57,7.57,0,0,0,.82-1.81,7.48,7.48,0,0,0,.8,1.83,7.27,7.27,0,0,0,1.83.8,7.31,7.31,0,0,0-1.84.79"/></g></g></g><g id="Grupo_3329" data-name="Grupo 3329"><g class="cls-11"><g id="Grupo_3131-11" data-name="Grupo 3131-11"><path id="Trazado_4815-11" data-name="Trazado 4815-11" class="cls-3" d="M288.4,741.23a7.73,7.73,0,0,0-.78,1.85,2.82,2.82,0,0,0-2.63-2.63,7.4,7.4,0,0,0,1.81-.82,7.57,7.57,0,0,0,.82-1.81,7.48,7.48,0,0,0,.8,1.83,7.27,7.27,0,0,0,1.83.8,7.31,7.31,0,0,0-1.84.79"/></g></g></g><g id="Grupo_3330" data-name="Grupo 3330"><g class="cls-12"><g id="Grupo_3131-12" data-name="Grupo 3131-12"><path id="Trazado_4815-12" data-name="Trazado 4815-12" class="cls-3" d="M681.77,665.92a7.83,7.83,0,0,0-.78,1.84,7.72,7.72,0,0,0-.81-1.81,7.61,7.61,0,0,0-1.82-.81,7.82,7.82,0,0,0,1.81-.83,7.5,7.5,0,0,0,.82-1.8,8.07,8.07,0,0,0,.8,1.83,7.18,7.18,0,0,0,1.84.8,7.73,7.73,0,0,0-1.85.78"/></g></g></g><g id="Grupo_3334" data-name="Grupo 3334"><g class="cls-13"><g id="Grupo_3131-13" data-name="Grupo 3131-13"><path id="Trazado_4815-13" data-name="Trazado 4815-13" class="cls-3" d="M834.1,739.49c-.71.72-1.67,4-1.67,4s-1-3.16-1.75-3.88-3.88-1.75-3.88-1.75,3.15-1,3.87-1.76,1.76-3.87,1.76-3.87,1,3.2,1.7,3.93,3.93,1.7,3.93,1.7-3.23,1-4,1.67"/></g></g></g><g id="Grupo_3337" data-name="Grupo 3337"><g class="cls-14"><g id="Grupo_3131-14" data-name="Grupo 3131-14"><path id="Trazado_4815-14" data-name="Trazado 4815-14" class="cls-3" d="M105.32,759.85a25.74,25.74,0,0,0-.89,4,24.59,24.59,0,0,0-.92-3.88,8,8,0,0,0-2.05-1.75,7.65,7.65,0,0,0,2-1.76,25.37,25.37,0,0,0,.93-3.87,26.33,26.33,0,0,0,.9,3.93,7.26,7.26,0,0,0,2.08,1.7,7.07,7.07,0,0,0-2.09,1.67"/></g></g></g><g id="Grupo_3348" data-name="Grupo 3348"><g class="cls-15"><g id="Grupo_3131-15" data-name="Grupo 3131-15"><path id="Trazado_4815-15" data-name="Trazado 4815-15" class="cls-3" d="M651.4,76.23a7.73,7.73,0,0,0-.78,1.85,7.4,7.4,0,0,0-.82-1.81,7.4,7.4,0,0,0-1.81-.82,7.4,7.4,0,0,0,1.81-.82,7.57,7.57,0,0,0,.82-1.81,7.48,7.48,0,0,0,.8,1.83,7.27,7.27,0,0,0,1.83.8,7.31,7.31,0,0,0-1.84.79"/></g></g></g><g id="Grupo_3349" data-name="Grupo 3349"><g class="cls-16"><g id="Grupo_3131-16" data-name="Grupo 3131-16"><path id="Trazado_4815-16" data-name="Trazado 4815-16" class="cls-3" d="M688.29,46.12c-.72.72-1.67,4-1.67,4s-1-3.15-1.75-3.87S681,44.45,681,44.45s3.15-1,3.87-1.76,1.76-3.87,1.76-3.87,1,3.2,1.7,3.93,3.93,1.7,3.93,1.7-3.23,1-4,1.67"/></g></g></g></svg>